<svg width="30" height="30" viewBox="0 0 30 30" fill="none" xmlns="http://www.w3.org/2000/svg">
<path d="M14.375 10C17.6875 10 20.6875 11.2375 23 13.25L25.3625 10.8875C26.15 10.1 27.5 10.65 27.5 11.7625V18.75C27.5 19.4375 26.9375 20 26.25 20H19.2625C18.15 20 17.5875 18.65 18.375 17.8625L20.7625 15.475C19.025 14.025 16.8125 13.125 14.3625 13.125C10.4125 13.125 7 15.425 5.375 18.75C5.0375 19.45 4.2375 19.8 3.5 19.55C2.6125 19.2625 2.1625 18.25 2.5625 17.4C4.7125 13.025 9.1875 10 14.375 10Z" fill="white"/>
</svg>
