<svg width="30" height="30" viewBox="0 0 30 30" fill="none" xmlns="http://www.w3.org/2000/svg">
<path fill-rule="evenodd" clip-rule="evenodd" d="M3.70001 15C3.70001 9.33001 8.12001 3.70001 15 3.70001C20.556 3.70001 23.304 7.81201 24.474 10H21C20.7348 10 20.4804 10.1054 20.2929 10.2929C20.1054 10.4804 20 10.7348 20 11C20 11.2652 20.1054 11.5196 20.2929 11.7071C20.4804 11.8947 20.7348 12 21 12H27C27.2652 12 27.5196 11.8947 27.7071 11.7071C27.8947 11.5196 28 11.2652 28 11V5.00001C28 4.7348 27.8947 4.48044 27.7071 4.29291C27.5196 4.10537 27.2652 4.00001 27 4.00001C26.7348 4.00001 26.4804 4.10537 26.2929 4.29291C26.1054 4.48044 26 4.7348 26 5.00001V8.62601C24.592 6.14201 21.332 1.70001 15 1.70001C6.87401 1.70001 1.70001 8.37001 1.70001 15C1.70001 21.63 6.87401 28.3 15 28.3C18.888 28.3 22.124 26.76 24.428 24.416C25.6506 23.169 26.6204 21.6973 27.284 20.082C27.3339 19.9605 27.3594 19.8304 27.359 19.6991C27.3586 19.5678 27.3324 19.4378 27.2818 19.3166C27.2312 19.1955 27.1572 19.0854 27.0641 18.9928C26.9709 18.9003 26.8605 18.8269 26.739 18.777C26.6175 18.7271 26.4874 18.7016 26.3561 18.702C26.2248 18.7024 26.0948 18.7286 25.9736 18.7792C25.8525 18.8298 25.7424 18.9038 25.6498 18.997C25.5573 19.0901 25.4839 19.2005 25.434 19.322C24.8689 20.6979 24.043 21.9516 23.002 23.014C21.06 24.994 18.33 26.3 15 26.3C8.12001 26.3 3.70001 20.67 3.70001 15Z" fill="white"/>
</svg>
