<svg width="30" height="30" viewBox="0 0 30 30" fill="none" xmlns="http://www.w3.org/2000/svg">
<path d="M3 5.66669H8.33333M27 5.66669H13.6667M3 15H19M27 15H24.3333M3 24.3334H5.66667M27 24.3334H11" stroke="white" stroke-width="2" stroke-linecap="round"/>
<path d="M11 8.33333C12.4727 8.33333 13.6666 7.13943 13.6666 5.66667C13.6666 4.19391 12.4727 3 11 3C9.52722 3 8.33331 4.19391 8.33331 5.66667C8.33331 7.13943 9.52722 8.33333 11 8.33333Z" stroke="white" stroke-width="2" stroke-linecap="round"/>
<path d="M21.6667 17.6666C23.1394 17.6666 24.3333 16.4727 24.3333 15C24.3333 13.5272 23.1394 12.3333 21.6667 12.3333C20.1939 12.3333 19 13.5272 19 15C19 16.4727 20.1939 17.6666 21.6667 17.6666Z" stroke="white" stroke-width="2" stroke-linecap="round"/>
<path d="M8.33335 27C9.80611 27 11 25.8061 11 24.3333C11 22.8606 9.80611 21.6667 8.33335 21.6667C6.86059 21.6667 5.66669 22.8606 5.66669 24.3333C5.66669 25.8061 6.86059 27 8.33335 27Z" stroke="white" stroke-width="2" stroke-linecap="round"/>
</svg>
