<svg width="30" height="30" viewBox="0 0 30 30" fill="none" xmlns="http://www.w3.org/2000/svg">
<path d="M15.625 10C12.3125 10 9.3125 11.2375 7 13.25L4.6375 10.8875C3.85 10.1 2.5 10.65 2.5 11.7625V18.75C2.5 19.4375 3.0625 20 3.75 20H10.7375C11.85 20 12.4125 18.65 11.625 17.8625L9.2375 15.475C10.975 14.025 13.1875 13.125 15.6375 13.125C19.5875 13.125 23 15.425 24.625 18.75C24.9625 19.45 25.7625 19.8 26.5 19.55C27.3875 19.2625 27.8375 18.25 27.4375 17.4C25.2875 13.025 20.8125 10 15.625 10Z" fill="white"/>
</svg>
