<svg width="30" height="30" viewBox="0 0 30 30" fill="none" xmlns="http://www.w3.org/2000/svg">
<path d="M3.23251 19.26L8.60626 24.6338C8.72214 24.7501 8.85988 24.8423 9.01155 24.9052C9.16323 24.968 9.32583 25.0002 9.49001 25H24.4913V22.5H15.7938L24.8213 13.4725C25.7963 12.4988 25.7963 10.9113 24.8213 9.93751L18.6325 3.75001C18.1632 3.28225 17.5276 3.01959 16.865 3.01959C16.2024 3.01959 15.5668 3.28225 15.0975 3.75001L9.16001 9.68626L3.21751 15.74C2.7575 16.2113 2.50124 16.8445 2.50405 17.5031C2.50686 18.1616 2.7685 18.7927 3.23251 19.26V19.26ZM16.865 5.51751L23.0525 11.705L19.82 14.9375L13.6325 8.75001L16.865 5.51751ZM10.9363 11.445L11.865 10.5175L18.0525 16.705L12.3563 22.4013C12.3258 22.4327 12.2971 22.4656 12.27 22.5H10.0075L5.00126 17.4913L10.9363 11.445V11.445Z" fill="white"/>
</svg>
