<svg width="30" height="30" viewBox="0 0 30 30" fill="none" xmlns="http://www.w3.org/2000/svg">
<path d="M24.9285 14.3634L24.9273 14.3625L15.3009 4.7355H15.3006C15.2304 4.66531 15.1472 4.60963 15.0555 4.57164C14.9638 4.53365 14.8655 4.5141 14.7663 4.5141C14.6671 4.5141 14.5688 4.53365 14.4771 4.57164C14.3854 4.60963 14.3021 4.66531 14.232 4.7355L12.654 6.3135L9.2802 2.9397C9.14219 2.79432 8.97605 2.67855 8.79187 2.59943C8.6077 2.52031 8.40935 2.47951 8.2089 2.4795C7.386 2.4792 6.7191 3.1488 6.7197 3.9753C6.71977 4.17822 6.76126 4.37899 6.84163 4.56531C6.922 4.75163 7.03955 4.91959 7.1871 5.0589L10.548 8.4204L2.3649 16.6032C2.29471 16.6734 2.23903 16.7566 2.20104 16.8483C2.16305 16.94 2.14349 17.0383 2.14349 17.1375C2.14349 17.2367 2.16305 17.335 2.20104 17.4267C2.23903 17.5184 2.29471 17.6016 2.3649 17.6718L11.9922 27.2994C12.0623 27.3696 12.1456 27.4253 12.2373 27.4633C12.329 27.5012 12.4273 27.5208 12.5265 27.5208C12.6257 27.5208 12.724 27.5012 12.8157 27.4633C12.9074 27.4253 12.9906 27.3696 13.0608 27.2994L13.0611 27.2991L24.9285 15.432C25.0701 15.2902 25.1497 15.0981 25.1497 14.8977C25.1497 14.6973 25.0701 14.5052 24.9285 14.3634V14.3634ZM19.0173 17.1318H6.0699L14.7708 8.4306L21.2445 14.9046L19.0173 17.1318ZM27.3219 22.1205L25.5309 19.0188C25.5216 19.0014 25.5126 18.9837 25.5015 18.9675L25.497 18.96L25.4958 18.9606C25.4518 18.8993 25.3943 18.8489 25.3279 18.8131C25.2614 18.7774 25.1876 18.7573 25.1122 18.7543C25.0368 18.7514 24.9617 18.7656 24.8927 18.7961C24.8236 18.8265 24.7624 18.8723 24.7137 18.93L24.7089 18.9273L24.6912 18.9582C24.6648 18.9928 24.6429 19.0306 24.6261 19.0707L22.8756 22.1022C22.5193 22.5777 22.3268 23.1559 22.3269 23.7501C22.3268 24.1132 22.3983 24.4728 22.5372 24.8083C22.6761 25.1438 22.8797 25.4486 23.1365 25.7054C23.3932 25.9622 23.6981 26.1658 24.0335 26.3048C24.369 26.4437 24.7286 26.5152 25.0917 26.5152C25.4548 26.5152 25.8144 26.4437 26.1499 26.3048C26.4854 26.1659 26.7902 25.9622 27.047 25.7054C27.3038 25.4486 27.5075 25.1438 27.6464 24.8083C27.7853 24.4728 27.8568 24.1132 27.8568 23.7501C27.8569 23.1638 27.6694 22.5927 27.3219 22.1205V22.1205Z" fill="white"/>
</svg>
