<svg width="30" height="30" viewBox="0 0 30 30" fill="none" xmlns="http://www.w3.org/2000/svg">
<path d="M4.99999 26.25C5.09962 26.262 5.20035 26.262 5.29999 26.25L10.3 25C10.5218 24.9473 10.725 24.8349 10.8875 24.675L26.25 9.2625C26.7156 8.7941 26.977 8.16047 26.977 7.5C26.977 6.83954 26.7156 6.20591 26.25 5.7375L24.275 3.75C24.0428 3.51756 23.7671 3.33316 23.4636 3.20735C23.1601 3.08154 22.8348 3.01678 22.5062 3.01678C22.1777 3.01678 21.8524 3.08154 21.5489 3.20735C21.2454 3.33316 20.9697 3.51756 20.7375 3.75L5.37499 19.1125C5.21347 19.2758 5.09717 19.4782 5.03749 19.7L3.78749 24.7C3.74256 24.8617 3.73067 25.0309 3.75252 25.1973C3.77438 25.3637 3.82953 25.5241 3.91469 25.6687C3.99985 25.8134 4.11327 25.9394 4.24819 26.0393C4.38311 26.1391 4.53677 26.2108 4.69999 26.25C4.79962 26.262 4.90035 26.262 4.99999 26.25ZM22.5 5.5125L24.4875 7.5L22.5 9.4875L20.525 7.5L22.5 5.5125ZM7.38749 20.6375L18.75 9.2625L20.7375 11.25L9.36249 22.625L6.72499 23.275L7.38749 20.6375Z" fill="white"/>
</svg>
